<svg xmlns="http://www.w3.org/2000/svg" width="418.88932" height="318.89755" viewBox="0 0 418.88932 318.89755"><title>Risorsa 80</title><g id="Livello_2" data-name="Livello 2"><g id="Livello_1-2" data-name="Livello 1"><path d="M196.1901,231.70528H178.586l.02871,32.93892c0,9.62552-4.12694,17.41265-13.75246,17.41265-9.6303,0-13.79555-7.78713-13.79555-17.41265V231.7364H133.508l-.00478,32.9078c0,19.02128,12.22761,34.43746,31.25127,34.43746,19.01884,0,31.43076-15.41618,31.43076-34.43746Z" style="fill:#009cde"/><rect x="354.92995" y="211.63356" width="17.51792" height="85.74888" style="fill:#009cde"/><polygon points="385.382 214.797 385.382 211.716 399.034 211.716 399.034 214.797 394.041 214.797 394.041 228.375 390.378 228.375 390.378 214.797 385.382 214.797" style="fill:#009cde"/><polygon points="406.102 211.717 409.999 223.171 410.044 223.171 413.728 211.717 418.889 211.717 418.889 228.375 415.459 228.375 415.459 216.569 415.411 216.569 411.33 228.375 408.505 228.375 404.424 216.686 404.376 216.686 404.376 228.375 400.948 228.375 400.948 211.717 406.102 211.717" style="fill:#009cde"/><path d="M119.18828,230.98928c-15.1002-3.48537-24.62518,11.51666-25.02255,12.321-.19391.395-.20108.62482-.869.608-.553-.01191-.61522-.608-.61522-.608L90.8072,231.83437H75.11336v65.49232H92.7055v-35.45c0-2.89649,7.799-16.78541,22.91359-13.21149,7.64345,1.80975,10.88708,5.0534,10.88708,5.0534v-19.9525a28.10707,28.10707,0,0,0-7.31789-2.77684" style="fill:#009cde"/><path d="M237.11186,247.58344a17.55266,17.55266,0,1,1-17.549,17.54905,17.55406,17.55406,0,0,1,17.549-17.54905m-17.05111,71.31411v-23.5647l.00478.00482.00479-8.826s.02634-.70614.66307-.71337c.56733-.00716.69423.3687.83306.71337,1.33334,3.3202,8.668,15.962,24.94592,11.99778a34.67562,34.67562,0,1,0-44.08928-33.37694v53.76506Z" style="fill:#009cde"/><path d="M330.68253,265.1327a17.55266,17.55266,0,1,1-17.55145-17.549,17.5551,17.5551,0,0,1,17.55145,17.549m-.50031,32.22314h17.63762V265.1327a34.67441,34.67441,0,1,0-44.08928,33.37461c16.27795,3.96651,23.61259-8.67758,24.94592-11.99545.13884-.34466.26332-.72052.83307-.7157.63673.00957.66307.7157.66307.7157" style="fill:#009cde"/><path d="M24.78555,226.44083H17.71422v55.92189l7.26284.18673c14.89671,0,24.49113-1.35485,24.49113-28.14165,0-25.68566-8.46933-27.967-24.68264-27.967M20.0099,297.21872H0V211.59915H21.47011c25.99683,0,45.7147,4.7709,45.7147,42.80865,0,37.6738-20.886,42.81092-47.17491,42.81092" style="fill:#009cde"/><path d="M226.00379,40.32607C212.68155,27.01013,199.97085,14.31629,196.188,0c-3.78306,14.31629-16.4958,27.01013-29.81582,40.32607-19.98013,19.96752-42.63344,42.59768-42.63344,76.539a72.45139,72.45139,0,1,0,144.90277,0c0-33.93913-22.65146-56.5715-42.6377-76.539m-71.471,93.42138c-4.44242-.15084-20.83759-28.41019,9.5781-58.49934l20.12727,21.98561a1.72048,1.72048,0,0,1-.13436,2.56739c-4.80285,4.9259-25.27388,25.4542-27.81828,32.55239-.52519,1.46512-1.29222,1.4097-1.75273,1.39395m41.65738,37.245a24.91772,24.91772,0,0,1-24.91789-24.9179,25.96489,25.96489,0,0,1,6.21071-16.45891c4.493-5.49409,18.70384-20.94674,18.70384-20.94674s13.99328,15.67947,18.6703,20.89429a24.3683,24.3683,0,0,1,6.25093,16.51136,24.918,24.918,0,0,1-24.91789,24.9179m47.69278-40.408c-.537,1.17454-1.75533,3.13538-3.39964,3.19524-2.931.10674-3.24416-1.39507-5.41051-4.60123-4.75617-7.03834-46.26288-50.41768-54.02635-58.80717-6.82874-7.379-.96162-12.58115,1.76-15.30735,3.41446-3.42058,13.38117-13.38118,13.38117-13.38118s29.71834,28.1967,42.09788,47.4628,8.11317,35.93739,5.5975,41.43889" style="fill:#009cde"/></g></g></svg>